<svg xmlns="http://www.w3.org/2000/svg" width="1200" height="400" viewBox="0 0 1200 400"><defs><style>@import url(https://fonts.googleapis.com/css2?family=Inter:wght@400;500;700;900&amp;family=Noto+Serif+SC:wght@700;900&amp;display=swap);</style><linearGradient id="hdBarGrad" x1="0" x2="0" y1="0" y2="1"><stop offset="0%" stop-color="#D4532B"/><stop offset="100%" stop-color="#A83518"/></linearGradient><linearGradient id="hdBarGradSoft" x1="0" x2="0" y1="0" y2="1"><stop offset="0%" stop-color="#8B5E3C"/><stop offset="100%" stop-color="#6E4A2E"/></linearGradient></defs><rect width="1200" height="400" fill="#111"/><rect width="3" height="304" x="60" y="48" fill="#D4532B"/><rect width="760" height="2" x="60" y="48" fill="#FFF" opacity=".15"/><rect width="760" height="1" x="60" y="350" fill="#FFF" opacity=".15"/><rect width="1" height="240" x="860" y="80" fill="#FFF" opacity=".08"/><text x="80" y="88" fill="#D4532B" font-family="'Inter', system-ui, -apple-system, sans-serif" font-size="11" font-weight="700" letter-spacing="3">CLAUDE CODE SKILL · DESIGN</text><text x="80" y="178" fill="#FFF" font-family="'Inter', system-ui, -apple-system, sans-serif" font-size="88" font-weight="900" letter-spacing="-3">Huashu Design</text><text x="80" y="222" fill="#EEE" font-family="'Noto Serif SC', 'Source Han Serif', 'Inter', serif" font-size="22" font-weight="700" letter-spacing="1">用 HTML 做设计的 skill</text><text x="80" y="284" fill="#BBB" font-family="'Inter', system-ui, -apple-system, sans-serif" font-size="15" font-weight="500" letter-spacing=".5">高保真原型</text><text x="176" y="284" fill="#D4532B" font-family="'Inter', sans-serif" font-size="15" font-weight="700">·</text><text x="188" y="284" fill="#BBB" font-family="'Inter', sans-serif" font-size="15" font-weight="500" letter-spacing=".5">幻灯片</text><text x="260" y="284" fill="#D4532B" font-family="'Inter', sans-serif" font-size="15" font-weight="700">·</text><text x="272" y="284" fill="#BBB" font-family="'Inter', sans-serif" font-size="15" font-weight="500" letter-spacing=".5">动画</text><text x="320" y="284" fill="#D4532B" font-family="'Inter', sans-serif" font-size="15" font-weight="700">·</text><text x="332" y="284" fill="#BBB" font-family="'Inter', sans-serif" font-size="15" font-weight="500" letter-spacing=".5">信息图</text><text x="404" y="284" fill="#D4532B" font-family="'Inter', sans-serif" font-size="15" font-weight="700">·</text><text x="416" y="284" fill="#BBB" font-family="'Inter', sans-serif" font-size="15" font-weight="500" letter-spacing=".5">App 原型</text><text x="80" y="312" fill="#888" font-family="'Inter', system-ui, -apple-system, sans-serif" font-size="14" font-weight="400" letter-spacing=".3">20 种设计哲学 · 5 维专家评审 · 发布会级动画导出</text><text x="80" y="370" fill="#666" font-family="'Inter', system-ui, -apple-system, sans-serif" font-size="12" font-weight="400" letter-spacing=".3">for Claude Code &amp; Agent-agnostic</text><text x="890" y="108" fill="#D4532B" font-family="'Inter', sans-serif" font-size="10" font-weight="700" letter-spacing="2" opacity=".9">OUTPUT SURFACES</text><rect width="128" height="100" x="890" y="122" fill="#1A1A1A" stroke="#333" stroke-width="1" rx="2"/><rect width="88" height="56" x="902" y="138" fill="#2A2A2A" stroke="#3A3A3A" stroke-width=".5"/><rect width="88" height="56" x="906" y="142" fill="#353535"/><rect width="88" height="56" x="910" y="146" fill="#E8E2D4"/><rect width="48" height="3" x="916" y="152" fill="#111"/><rect width="72" height="1.5" x="916" y="160" fill="#666"/><rect width="60" height="1.5" x="916" y="166" fill="#666"/><rect width="32" height="14" x="916" y="176" fill="#D4532B"/><text x="902" y="216" fill="#777" font-family="'Inter', sans-serif" font-size="9" font-weight="500" letter-spacing="2">SLIDES</text><rect width="128" height="100" x="1034" y="122" fill="#1A1A1A" stroke="#333" stroke-width="1" rx="2"/><rect width="36" height="76" x="1080" y="130" fill="#0A0A0A" stroke="#444" stroke-width="1" rx="6"/><rect width="12" height="3" x="1092" y="134" fill="#000" rx="1.5"/><rect width="30" height="58" x="1083" y="140" fill="#EEEAE0"/><rect width="24" height="4" x="1086" y="144" fill="#111"/><rect width="16" height="1.5" x="1086" y="152" fill="#888"/><rect width="20" height="1.5" x="1086" y="157" fill="#888"/><rect width="24" height="12" x="1086" y="164" fill="#D4532B"/><rect width="11" height="14" x="1086" y="180" fill="#D1CAB8"/><rect width="11" height="14" x="1099" y="180" fill="#D1CAB8"/><rect width="12" height="1" x="1092" y="201" fill="#444" rx=".5"/><text x="1046" y="216" fill="#777" font-family="'Inter', sans-serif" font-size="9" font-weight="500" letter-spacing="2">PROTOTYPE</text><rect width="128" height="100" x="890" y="238" fill="#1A1A1A" stroke="#333" stroke-width="1" rx="2"/><rect width="34" height="44" x="898" y="252" fill="#252525" stroke="#3A3A3A" stroke-width=".5"/><rect width="34" height="44" x="939" y="252" fill="#2E2E2E" stroke="#3A3A3A" stroke-width=".5"/><rect width="34" height="44" x="980" y="252" fill="#353535" stroke="#3A3A3A" stroke-width=".5"/><circle cx="910" cy="274" r="6" fill="#666"/><circle cx="956" cy="274" r="6" fill="#9C6A46"/><circle cx="997" cy="274" r="6" fill="#D4532B"/><path fill="none" stroke="#D4532B" stroke-dasharray="2 2" stroke-width=".8" d="M 910 274 Q 933 258 956 274" opacity=".6"/><path fill="none" stroke="#D4532B" stroke-dasharray="2 2" stroke-width=".8" d="M 956 274 Q 977 258 997 274" opacity=".6"/><rect width="116" height="1" x="898" y="306" fill="#555"/><rect width="2" height="4" x="898" y="306" fill="#D4532B"/><rect width="2" height="4" x="938" y="306" fill="#555"/><rect width="2" height="4" x="978" y="306" fill="#555"/><rect width="2" height="4" x="1012" y="306" fill="#555"/><text x="902" y="332" fill="#777" font-family="'Inter', sans-serif" font-size="9" font-weight="500" letter-spacing="2">ANIMATION</text><rect width="128" height="100" x="1034" y="238" fill="#1A1A1A" stroke="#333" stroke-width="1" rx="2"/><rect width="12" height="20" x="1046" y="290" fill="url(#hdBarGradSoft)"/><rect width="12" height="32" x="1062" y="278" fill="url(#hdBarGradSoft)"/><rect width="12" height="40" x="1078" y="270" fill="url(#hdBarGradSoft)"/><rect width="12" height="48" x="1094" y="262" fill="url(#hdBarGrad)"/><rect width="12" height="56" x="1110" y="254" fill="url(#hdBarGrad)"/><rect width="12" height="62" x="1126" y="248" fill="url(#hdBarGrad)"/><rect width="104" height="1" x="1044" y="310" fill="#555"/><rect width="50" height="3" x="1046" y="252" fill="#FFF" opacity=".85"/><rect width="34" height="1.5" x="1046" y="260" fill="#666"/><text x="1046" y="332" fill="#777" font-family="'Inter', sans-serif" font-size="9" font-weight="500" letter-spacing="2">INFOGRAPHIC</text></svg>